<?xml version="1.0" standalone="no"?>
<!DOCTYPE svg PUBLIC "-//W3C//DTD SVG 20010904//EN"
 "http://www.w3.org/TR/2001/REC-SVG-20010904/DTD/svg10.dtd">
<svg version="1.0" xmlns="http://www.w3.org/2000/svg"
 width="1179.000000pt" height="1162.000000pt" viewBox="0 0 1179.000000 1162.000000"
 preserveAspectRatio="xMidYMid meet">

<g transform="translate(0.000000,1162.000000) scale(0.100000,-0.100000)"
fill="#000000" stroke="none">
<path d="M0 5810 l0 -5810 5895 0 5895 0 0 5810 0 5810 -5895 0 -5895 0 0
-5810z m8050 3881 c145 -40 280 -112 373 -198 121 -112 209 -256 249 -404 l22
-84 6 -1383 c3 -959 2 -1382 -5 -1382 -26 0 -789 514 -852 572 -31 30 -32 30
-55 12 -36 -27 -112 -120 -280 -344 -85 -113 -191 -253 -236 -313 -231 -305
-466 -728 -628 -1132 -83 -209 -112 -266 -125 -243 -31 56 -33 597 -3 1056 l7
101 -27 10 c-89 35 -125 95 -135 230 -4 53 -6 100 -3 104 2 5 15 -17 28 -50
38 -94 123 -151 239 -160 91 -8 160 11 266 72 300 171 545 464 605 724 14 57
14 93 3 281 -18 309 4 487 61 505 32 10 77 -13 102 -54 19 -30 23 -49 22 -116
-2 -89 -20 -151 -59 -197 -35 -41 -33 -73 6 -93 42 -22 101 -11 145 27 53 47
120 164 158 278 28 83 38 138 51 259 8 85 17 157 20 160 3 2 81 6 173 7 186 1
256 16 305 62 34 33 34 53 -2 94 -37 42 -150 90 -326 138 l-130 36 2 219 c3
332 -15 454 -80 523 -25 28 -140 88 -206 108 -196 62 -539 95 -778 76 -241
-19 -305 -58 -360 -218 -46 -129 -116 -432 -125 -539 l-3 -30 -175 -2 c-253
-2 -399 -23 -434 -62 -95 -105 271 -228 834 -281 124 -11 314 -30 423 -40 109
-11 204 -20 212 -20 20 0 20 -135 -1 -323 -21 -197 -36 -261 -89 -384 -74
-174 -122 -226 -217 -239 -75 -10 -120 9 -178 76 -83 96 -201 142 -283 111
-28 -11 -84 -67 -93 -93 -9 -30 -20 -20 -16 15 2 17 -6 114 -17 215 -30 258
-26 401 13 552 12 45 11 51 -5 66 -10 9 -23 13 -29 9 -54 -34 -83 -346 -56
-600 34 -308 38 -376 25 -445 -19 -107 -27 -124 -28 -59 -1 76 -27 216 -51
281 -54 145 -190 275 -343 328 -78 28 -271 38 -373 21 -133 -24 -267 -120
-332 -239 l-29 -54 -6 34 c-3 18 -5 76 -5 128 l1 95 -262 3 -261 2 0 -860 0
-860 259 0 259 0 5 493 c5 530 6 548 60 640 32 55 60 80 124 112 42 21 66 26
132 26 167 1 273 -94 301 -271 6 -38 10 -261 10 -532 l0 -468 115 0 c63 0 115
-4 115 -8 0 -5 -11 -42 -25 -83 -41 -119 -121 -450 -154 -639 -25 -143 -71
-516 -71 -576 0 -12 -139 -14 -1030 -14 -900 0 -1041 2 -1108 16 -153 31 -265
90 -384 203 -94 89 -160 185 -206 301 -66 164 -63 53 -59 2150 2 1705 4 1910
18 1955 78 245 229 434 428 535 73 36 210 79 286 90 33 4 989 7 2125 6 l2065
-1 85 -24z m-1282 -2693 c69 -74 42 -180 -50 -194 -41 -7 -146 41 -172 78 -23
33 -20 81 7 105 27 26 45 30 128 32 56 1 69 -2 87 -21z m-4232 -3304 c75 -36
117 -122 95 -196 -34 -113 -167 -167 -273 -112 -78 40 -110 152 -66 233 43 81
158 116 244 75z m-1034 -627 l3 -622 328 -3 327 -2 0 -130 0 -130 -485 0 -485
0 0 755 0 756 155 -2 155 -1 2 -621z m2778 213 c0 -242 4 -410 9 -410 5 0 11
4 13 9 4 10 150 172 258 284 l75 78 173 -3 172 -3 -208 -215 -208 -215 216
-310 216 -310 -156 -5 c-94 -3 -162 -1 -173 5 -10 6 -49 55 -87 110 -38 55
-103 151 -146 213 l-77 113 -39 -38 -38 -37 0 -182 c0 -101 -3 -184 -7 -186
-5 -2 -71 -2 -148 0 l-140 3 3 754 2 755 145 0 145 0 0 -410z m2958 -347 l2
-753 -139 0 c-157 0 -151 -4 -151 87 l0 43 -47 -49 c-62 -62 -136 -91 -255
-98 -75 -5 -98 -2 -172 21 -164 51 -267 169 -307 351 -19 84 -16 285 4 362 59
224 231 362 452 363 108 0 219 -39 282 -99 18 -17 34 -31 35 -31 2 0 3 123 3
273 0 149 1 275 3 280 2 4 67 6 145 5 l142 -3 3 -752z m480 343 l2 -408 88 93
c49 52 126 136 173 186 l84 93 173 0 c106 0 172 -4 170 -10 -3 -9 -112 -123
-311 -327 l-100 -101 163 -234 c90 -128 188 -268 217 -310 l54 -78 -170 0
-170 0 -48 70 c-47 69 -194 277 -234 333 l-21 29 -34 -33 -34 -33 0 -182 c0
-111 -4 -184 -10 -186 -5 -1 -70 -2 -145 0 l-135 3 0 755 0 755 143 -3 142 -3
3 -409z m2980 -343 l2 -753 -140 0 -140 0 0 68 0 67 -24 -31 c-108 -136 -371
-165 -550 -60 -146 85 -228 261 -229 486 0 241 92 419 258 500 163 80 374 59
498 -50 l37 -32 0 281 0 282 143 -3 142 -3 3 -752z m-7116 297 c75 -28 150
-96 185 -168 l28 -57 5 -410 c3 -225 5 -411 5 -412 0 -4 -52 -5 -167 -4 l-127
1 -3 353 c-3 334 -4 354 -24 387 -45 77 -135 106 -233 75 -69 -22 -114 -67
-137 -138 -14 -42 -18 -110 -23 -365 l-6 -313 -143 -2 -142 -2 0 533 0 532
145 0 145 0 0 -80 c0 -47 4 -80 10 -80 6 0 10 5 10 12 0 7 12 29 27 51 30 43
95 85 162 104 66 19 212 10 283 -17z m2108 2 c133 -47 236 -124 293 -223 85
-145 87 -408 5 -579 -135 -280 -588 -361 -848 -151 -84 67 -127 129 -162 231
-20 56 -23 85 -22 205 0 128 2 146 27 210 15 39 42 90 59 115 66 96 190 176
319 205 86 20 255 13 329 -13z m3435 3 c135 -46 232 -117 293 -213 57 -88 75
-162 76 -302 0 -137 -13 -200 -64 -299 -120 -237 -478 -332 -755 -201 -81 39
-174 124 -212 197 -49 90 -67 172 -67 298 0 166 42 286 132 378 79 81 185 136
300 157 71 13 239 5 297 -15z m-6515 -524 c0 -292 -3 -531 -7 -533 -5 -2 -72
-2 -149 0 l-142 3 -1 520 c-1 285 1 524 4 529 4 6 66 10 151 10 l144 0 0 -529z"/>
<path d="M4030 8341 c-80 -26 -141 -71 -184 -135 -141 -210 15 -493 269 -489
93 1 163 33 228 103 45 48 58 70 72 125 16 59 17 76 7 137 -15 85 -31 118 -85
172 -61 60 -126 89 -211 92 -39 2 -82 0 -96 -5z"/>
<path d="M3848 7495 c-3 -4 -7 -391 -7 -861 l-2 -854 265 0 264 0 6 28 c3 15
5 401 4 857 l-3 830 -261 3 c-143 1 -263 0 -266 -3z"/>
<path d="M6605 2996 c-96 -45 -141 -118 -152 -246 -9 -112 20 -220 75 -276 58
-58 161 -79 255 -53 50 13 106 64 129 115 42 96 42 269 -1 352 -58 113 -194
161 -306 108z"/>
<path d="M10064 2996 c-101 -47 -149 -141 -148 -291 1 -192 87 -295 244 -294
80 1 119 14 165 58 68 63 80 100 80 241 0 117 -2 128 -27 177 -63 118 -195
164 -314 109z"/>
<path d="M5446 3019 c-70 -11 -125 -53 -160 -121 -24 -47 -30 -73 -34 -150 -2
-54 1 -117 7 -150 15 -72 64 -146 114 -171 48 -24 157 -33 215 -18 58 16 117
71 137 129 37 104 29 286 -16 373 -44 86 -145 128 -263 108z"/>
<path d="M8892 3020 c-84 -17 -124 -48 -161 -125 -33 -67 -35 -75 -35 -180 0
-90 4 -120 22 -165 44 -110 98 -145 227 -145 110 0 159 23 206 97 74 115 60
362 -25 456 -47 53 -147 79 -234 62z"/>
</g>
</svg>
